<?xml version="1.0" encoding="utf-8"?>
<!-- Generator: Adobe Illustrator 24.1.1, SVG Export Plug-In . SVG Version: 6.00 Build 0)  -->
<svg version="1.1" id="Capa_1" xmlns="http://www.w3.org/2000/svg" xmlns:xlink="http://www.w3.org/1999/xlink" x="0px" y="0px"
	 viewBox="0 0 16 16" style="enable-background:new 0 0 16 16;" xml:space="preserve">
<style type="text/css">
	.st0{fill:#FFFFFF;}
</style>
<path class="st0" d="M16,8.1c-0.1-4.4-3.7-8-8.1-7.9s-8,3.7-7.9,8.1c0,3.9,2.9,7.2,6.7,7.8v-5.7h-2V8.1h2V6.3c-0.2-1.6,1-3,2.5-3.1
	c0.2,0,0.3,0,0.5,0c0.6,0,1.2,0.1,1.8,0.2v2h-1c-0.6-0.1-1.2,0.4-1.3,1c0,0.1,0,0.2,0,0.3v1.5h2.2l-0.4,2.3H9.3V16
	C13.2,15.4,16,12,16,8.1z"/>
</svg>
