<?xml version="1.0" encoding="utf-8"?>
<!-- Generator: Adobe Illustrator 24.1.1, SVG Export Plug-In . SVG Version: 6.00 Build 0)  -->
<svg version="1.1" id="Capa_1" xmlns="http://www.w3.org/2000/svg" xmlns:xlink="http://www.w3.org/1999/xlink" x="0px" y="0px"
	 viewBox="0 0 16 16" style="enable-background:new 0 0 16 16;" xml:space="preserve">
<style type="text/css">
	.st0{fill:#FFFFFF;}
</style>
<path class="st0" d="M8,0C5.8,0,5.6,0,4.7,0.1C4,0.1,3.4,0.2,2.8,0.4C1.7,0.8,0.8,1.7,0.4,2.8C0.2,3.4,0.1,4,0.1,4.7
	C0,5.6,0,5.8,0,8s0,2.4,0.1,3.3c0,0.7,0.1,1.3,0.4,1.9c0.2,0.5,0.5,1,0.9,1.4c0.4,0.4,0.9,0.7,1.4,0.9C3.4,15.8,4,16,4.7,16
	c0.9,0,1.1,0,3.3,0s2.4,0,3.3-0.1c0.7,0,1.3-0.1,1.9-0.4c0.5-0.2,1-0.5,1.4-0.9c0.4-0.4,0.7-0.9,0.9-1.4c0.2-0.6,0.4-1.3,0.4-1.9
	c0-0.9,0-1.1,0-3.3s0-2.4,0-3.3c0-0.7-0.1-1.3-0.4-1.9c-0.4-1.1-1.3-1.9-2.4-2.3c-0.6-0.2-1.3-0.4-1.9-0.4C10.4,0,10.2,0,8,0z
	 M7.3,1.4H8c2.1,0,2.4,0,3.2,0c0.5,0,1,0.1,1.5,0.3C13.4,2,14,2.6,14.2,3.3c0.2,0.5,0.3,1,0.3,1.5c0,0.8,0.1,1.1,0.1,3.2
	s0,2.4-0.1,3.2c0,0.5-0.1,1-0.3,1.5c-0.1,0.3-0.3,0.7-0.6,0.9c-0.3,0.3-0.6,0.5-0.9,0.6c-0.5,0.2-1,0.3-1.5,0.3c-0.8,0-1.1,0-3.2,0
	s-2.4,0-3.2,0c-0.5,0-1-0.1-1.5-0.3c-0.3-0.1-0.7-0.3-0.9-0.6c-0.3-0.3-0.5-0.6-0.6-0.9c-0.2-0.5-0.3-1-0.3-1.5c0-0.8,0-1.1,0-3.2
	s0-2.4,0-3.2c0-0.5,0.1-1,0.3-1.5C2,2.6,2.6,2,3.3,1.8c0.5-0.2,1-0.3,1.5-0.3C5.5,1.5,5.8,1.4,7.3,1.4z M12.3,2.8
	c-0.5,0.2-0.8,0.7-0.7,1.2c0.1,0.3,0.4,0.6,0.7,0.7l0,0c0.5,0.2,1.1-0.1,1.2-0.7c0.2-0.5-0.1-1.1-0.7-1.2
	C12.7,2.7,12.5,2.7,12.3,2.8z M8,3.9c-2.3,0-4.1,1.8-4.2,4c0,2.3,1.8,4.1,4,4.2H8c2.3,0,4.1-1.8,4.1-4.1S10.3,3.9,8,3.9z M8,5.3
	c1.5,0,2.7,1.2,2.7,2.7c0,1.5-1.2,2.7-2.7,2.7l0,0c-1.5,0-2.7-1.2-2.7-2.7C5.3,6.5,6.5,5.3,8,5.3z"/>
</svg>
